HIERARCHY
ROOT Hips
{
    OFFSET   0.000000   0.000000   0.000000
    CHANNELS 6 Xposition Yposition Zposition Zrotation Xrotation Yrotation
    JOINT Chest
    {
        OFFSET   0.000000   8.007240   0.000000
        CHANNELS 3 Zrotation Xrotation Yrotation
        JOINT Chest2
        {
            OFFSET   0.000000  22.077100   0.000000
            CHANNELS 3 Zrotation Xrotation Yrotation
            JOINT Neck
            {
                OFFSET   0.000000  23.254800   0.000000
                CHANNELS 3 Zrotation Xrotation Yrotation
                JOINT Head
                {
                    OFFSET   0.000000  14.370000   1.956600
                    CHANNELS 3 Zrotation Xrotation Yrotation
                    End Site
                    {
                        OFFSET   0.000000  19.566000   0.000000
                    }
                }
            }
            JOINT LeftCollar
            {
                OFFSET   3.911900  19.017000  -0.467064
                CHANNELS 3 Zrotation Xrotation Yrotation
                JOINT LeftShoulder
                {
                    OFFSET  10.383700   0.000000   0.000000
                    CHANNELS 3 Zrotation Xrotation Yrotation
                    JOINT LeftElbow
                    {
                        OFFSET  26.662100   0.001476   0.000517
                        CHANNELS 3 Zrotation Xrotation Yrotation
                        JOINT LeftWrist
                        {
                            OFFSET  28.869000  -0.000025  -0.000106
                            CHANNELS 3 Zrotation Xrotation Yrotation
                            JOINT LeftFinger0
                            {
                                OFFSET   2.044660  -2.323460   3.252850
                                CHANNELS 3 Zrotation Xrotation Yrotation
                                JOINT LeftFinger01
                                {
                                    OFFSET   3.088130   0.000000   0.000000
                                    CHANNELS 3 Zrotation Xrotation Yrotation
                                    JOINT LeftFinger02
                                    {
                                        OFFSET   2.639460   0.000000   0.000000
                                        CHANNELS 3 Zrotation Xrotation Yrotation
                                        End Site
                                        {
                                            OFFSET   2.582190   0.000000   0.000000
                                        }
                                    }
                                }
                            }
                            JOINT LeftFinger1
                            {
                                OFFSET   8.364480   0.000000   3.252850
                                CHANNELS 3 Zrotation Xrotation Yrotation
                                JOINT LeftFinger11
                                {
                                    OFFSET   4.646930   0.000000   0.000000
                                    CHANNELS 3 Zrotation Xrotation Yrotation
                                    JOINT LeftFinger12
                                    {
                                        OFFSET   2.323460   0.000000   0.000000
                                        CHANNELS 3 Zrotation Xrotation Yrotation
                                        End Site
                                        {
                                            OFFSET   2.273050   0.000000   0.000000
                                        }
                                    }
                                }
                            }
                            JOINT LeftFinger2
                            {
                                OFFSET   8.364490   0.000015   1.078090
                                CHANNELS 3 Zrotation Xrotation Yrotation
                                JOINT LeftFinger21
                                {
                                    OFFSET   5.111620   0.000000   0.000000
                                    CHANNELS 3 Zrotation Xrotation Yrotation
                                    JOINT LeftFinger22
                                    {
                                        OFFSET   2.788160   0.000016   0.000000
                                        CHANNELS 3 Zrotation Xrotation Yrotation
                                        End Site
                                        {
                                            OFFSET   2.727660   0.000000   0.000000
                                        }
                                    }
                                }
                            }
                            JOINT LeftFinger3
                            {
                                OFFSET   7.899780   0.000017  -1.078090
                                CHANNELS 3 Zrotation Xrotation Yrotation
                                JOINT LeftFinger31
                                {
                                    OFFSET   4.646930   0.000000   0.000000
                                    CHANNELS 3 Zrotation Xrotation Yrotation
                                    JOINT LeftFinger32
                                    {
                                        OFFSET   2.323470   0.000000   0.000000
                                        CHANNELS 3 Zrotation Xrotation Yrotation
                                        End Site
                                        {
                                            OFFSET   2.273050   0.000000   0.000000
                                        }
                                    }
                                }
                            }
                            JOINT LeftFinger4
                            {
                                OFFSET   7.435090   0.000000  -3.252850
                                CHANNELS 3 Zrotation Xrotation Yrotation
                                JOINT LeftFinger41
                                {
                                    OFFSET   3.717550   0.000000   0.000000
                                    CHANNELS 3 Zrotation Xrotation Yrotation
                                    JOINT LeftFinger42
                                    {
                                        OFFSET   1.858770   0.000000   0.000000
                                        CHANNELS 3 Zrotation Xrotation Yrotation
                                        End Site
                                        {
                                            OFFSET   1.818440   0.000000   0.000000
                                        }
                                    }
                                }
                            }
                        }
                    }
                }
            }
            JOINT RightCollar
            {
                OFFSET  -3.911900  19.017000  -0.467063
                CHANNELS 3 Zrotation Xrotation Yrotation
                JOINT RightShoulder
                {
                    OFFSET -10.383700   0.000019   0.000000
                    CHANNELS 3 Zrotation Xrotation Yrotation
                    JOINT RightElbow
                    {
                        OFFSET -26.662100   0.001175   0.000102
                        CHANNELS 3 Zrotation Xrotation Yrotation
                        JOINT RightWrist
                        {
                            OFFSET -28.869000   0.000016  -0.000079
                            CHANNELS 3 Zrotation Xrotation Yrotation
                            JOINT RightFinger0
                            {
                                OFFSET  -2.044660  -2.323490   3.252850
                                CHANNELS 3 Zrotation Xrotation Yrotation
                                JOINT RightFinger01
                                {
                                    OFFSET  -3.088140   0.000000   0.000000
                                    CHANNELS 3 Zrotation Xrotation Yrotation
                                    JOINT RightFinger02
                                    {
                                        OFFSET  -2.639460   0.000000   0.000000
                                        CHANNELS 3 Zrotation Xrotation Yrotation
                                        End Site
                                        {
                                            OFFSET  -2.582190   0.000000   0.000000
                                        }
                                    }
                                }
                            }
                            JOINT RightFinger1
                            {
                                OFFSET  -8.364480   0.000000   3.252850
                                CHANNELS 3 Zrotation Xrotation Yrotation
                                JOINT RightFinger11
                                {
                                    OFFSET  -4.646930   0.000000   0.000000
                                    CHANNELS 3 Zrotation Xrotation Yrotation
                                    JOINT RightFinger12
                                    {
                                        OFFSET  -2.323470   0.000000   0.000000
                                        CHANNELS 3 Zrotation Xrotation Yrotation
                                        End Site
                                        {
                                            OFFSET  -2.273050   0.000000   0.000000
                                        }
                                    }
                                }
                            }
                            JOINT RightFinger2
                            {
                                OFFSET  -8.364480   0.000000   1.078090
                                CHANNELS 3 Zrotation Xrotation Yrotation
                                JOINT RightFinger21
                                {
                                    OFFSET  -5.111620   0.000000   0.000000
                                    CHANNELS 3 Zrotation Xrotation Yrotation
                                    JOINT RightFinger22
                                    {
                                        OFFSET  -2.788160   0.000000   0.000000
                                        CHANNELS 3 Zrotation Xrotation Yrotation
                                        End Site
                                        {
                                            OFFSET  -2.727660   0.000000   0.000000
                                        }
                                    }
                                }
                            }
                            JOINT RightFinger3
                            {
                                OFFSET  -7.899780   0.000000  -1.078090
                                CHANNELS 3 Zrotation Xrotation Yrotation
                                JOINT RightFinger31
                                {
                                    OFFSET  -4.646930   0.000000   0.000000
                                    CHANNELS 3 Zrotation Xrotation Yrotation
                                    JOINT RightFinger32
                                    {
                                        OFFSET  -2.323470   0.000000   0.000000
                                        CHANNELS 3 Zrotation Xrotation Yrotation
                                        End Site
                                        {
                                            OFFSET  -2.273050   0.000000   0.000000
                                        }
                                    }
                                }
                            }
                            JOINT RightFinger4
                            {
                                OFFSET  -7.435090   0.000000  -3.252850
                                CHANNELS 3 Zrotation Xrotation Yrotation
                                JOINT RightFinger41
                                {
                                    OFFSET  -3.717550   0.000000   0.000000
                                    CHANNELS 3 Zrotation Xrotation Yrotation
                                    JOINT RightFinger42
                                    {
                                        OFFSET  -1.858770   0.000000   0.000000
                                        CHANNELS 3 Zrotation Xrotation Yrotation
                                        End Site
                                        {
                                            OFFSET  -1.818440   0.000000   0.000000
                                        }
                                    }
                                }
                            }
                        }
                    }
                }
            }
        }
    }
    JOINT LeftHip
    {
        OFFSET   9.783040   0.000000   0.000000
        CHANNELS 3 Zrotation Xrotation Yrotation
        JOINT LeftKnee
        {
            OFFSET   0.000032 -41.789100  -0.002222
            CHANNELS 3 Zrotation Xrotation Yrotation
            JOINT LeftAnkle
            {
                OFFSET   0.000087 -41.133200  -0.000135
                CHANNELS 3 Zrotation Xrotation Yrotation
                JOINT LeftToe
                {
                    OFFSET   0.000000  -6.358960  14.674500
                    CHANNELS 3 Zrotation Xrotation Yrotation
                    End Site
                    {
                        OFFSET   0.000000   0.000000   3.913200
                    }
                }
            }
        }
    }
    JOINT RightHip
    {
        OFFSET  -9.783040   0.000000   0.000000
        CHANNELS 3 Zrotation Xrotation Yrotation
        JOINT RightKnee
        {
            OFFSET   0.000047 -41.789100  -0.000896
            CHANNELS 3 Zrotation Xrotation Yrotation
            JOINT RightAnkle
            {
                OFFSET  -0.000117 -41.133300  -0.000248
                CHANNELS 3 Zrotation Xrotation Yrotation
                JOINT RightToe
                {
                    OFFSET   0.000000  -6.358970  14.674500
                    CHANNELS 3 Zrotation Xrotation Yrotation
                    End Site
                    {
                        OFFSET   0.000000   0.000000   3.913200
                    }
                }
            }
        }
    }
}
MOTION
Frames: 4
Frame Time:   0.016667
 -1.370840  89.484200   0.775843  -2.473220 -11.989600  -5.509760   0.398557   7.714660  -2.538810   1.161220  15.403400  -5.203930  -0.233756  12.769600   0.051818  -0.437888  25.887100  -8.642520   0.066626  11.211100  11.789400 -58.777700 -15.658600   3.591340  30.538800 -12.629100 -75.692600 -20.076000  27.097800   3.534570  31.446300  28.488800 -56.969000 -42.786600  -0.003730  -0.003378 -18.970900  -0.001733  -0.003264 -26.747300  -2.195200   4.349810 -21.951400  -0.000724   0.000733 -15.366000  -0.001016   0.005792 -63.792900  -4.372140   2.150370 -63.873800   0.001942  -0.001791 -47.905500   0.001807   0.002752 -59.627400  -6.067050   3.544790 -59.815200  -0.000295   0.001459 -44.861500   0.002620   0.006529 -58.831600  -8.903850   5.348710 -88.872500  -0.002460   0.000674 -59.189000  -0.002255   0.005426  -3.253590   8.422030   3.969200  34.850000  -8.352060  -1.763500 -23.364400  -2.320700  67.996700  46.690900  25.602700 -26.009900 -34.391100  29.101300  72.808300  32.834700   0.003713  -0.002304  11.417300   0.001402   0.005667  11.484200   3.614200  17.271000   9.845770   0.001029  -0.002780   6.892060  -0.000762  -0.002544  54.727000   4.391280   3.102100  54.845800  -0.002553  -0.001614  41.134300  -0.000563  -0.003948  57.436300   0.718875   0.460961  57.439000  -0.000207  -0.000997  43.079200   0.001192  -0.002118  56.475900  -7.234260  -4.772150  85.167100  -0.001898  -0.000659  56.721400  -0.002484   0.004638   3.890040  15.446700   1.065090   0.342175   1.953870  12.252500  -3.879120  -4.965490   2.329800  -0.000000   0.000000   0.000000  -0.757297  14.671900  -6.687760   0.742667   1.192080 -11.432400   0.193404  -2.276630   6.481810  -0.000000   0.000000  -0.000000
 -1.319830  89.494300   0.655330  -2.455760 -12.038500  -5.496860   0.404928   7.748710  -2.611000   1.185980  15.470200  -5.352130  -0.356330  12.692800   0.078403  -0.668349  25.733800  -7.498580   0.014139  11.188400  11.938400 -59.492200 -15.064200   3.960860  30.330200 -12.759100 -75.958800 -20.090800  27.457100   3.686620  31.363600  28.292700 -56.997200 -42.768100  -0.003844  -0.003494 -18.945200  -0.001733  -0.003266 -26.871400  -2.161870   4.258770 -22.051500  -0.000780   0.000735 -15.436100  -0.001071   0.005789 -64.010000  -4.294070   2.090730 -64.088400   0.002016  -0.001779 -48.066400   0.001826   0.002820 -59.806200  -6.058940   3.514270 -59.992200  -0.000298   0.001457 -44.994200   0.002689   0.006514 -59.035000  -8.838890   5.267620 -89.163600  -0.002432   0.000636 -59.382900  -0.002248   0.005555  -3.152740   8.432830   4.210300  35.487300  -7.867750  -2.075060 -22.821600  -2.529940  68.773600  46.991000  25.867000 -26.419300 -34.268500  29.029900  72.628000  32.975000   0.003664  -0.002269  11.487500   0.001336   0.005668  11.543100   3.617210  17.167700   9.890970   0.001022  -0.002768   6.923690  -0.000729  -0.002529  54.885900   4.365950   3.065260  55.002700  -0.002576  -0.001593  41.252000  -0.000534  -0.003942  57.579700   0.680096   0.432872  57.582200  -0.000123  -0.000909  43.186600   0.001211  -0.002136  56.482000  -7.237110  -4.773570  85.176600  -0.001858  -0.000617  56.727700  -0.002445   0.004589   3.849640  15.450200   1.043340   0.321312   1.897160  12.318800  -3.839120  -4.899170   2.283740  -0.000000   0.000000   0.000000  -0.812311  14.656800  -6.624450   0.753969   1.169180 -11.464400   0.197674  -2.205800   6.449440   0.000000   0.000000  -0.000000
 -1.266230  89.503800   0.535630  -2.436550 -12.082100  -5.514900   0.407365   7.781460  -2.643770   1.197550  15.535100  -5.420290  -0.445071  12.562400   0.096986  -0.833902  25.467000  -6.490990  -0.000834  11.108700  12.004600 -60.174800 -14.482100   4.380650  30.090600 -12.771900 -76.332900 -20.235400  27.831200   3.935490  31.312400  28.102700 -57.007200 -42.714300  -0.003959  -0.003611 -18.880400  -0.001734  -0.003271 -26.890400  -2.128810   4.186690 -22.066400  -0.000835   0.000745 -15.446500  -0.001139   0.005793 -64.069400  -4.225270   2.051020 -64.146800   0.002100  -0.001764 -48.110100   0.001841   0.002885 -59.857800  -6.059270   3.505830 -60.043500  -0.000288   0.001448 -45.032600   0.002758   0.006489 -59.117900  -8.812290   5.234810 -89.282300  -0.002409   0.000614 -59.462000  -0.002232   0.005695  -3.060030   8.429110   4.365040  36.141800  -7.411300  -2.353600 -22.191900  -2.626480  69.545300  47.362300  26.225000 -26.988900 -34.317900  29.165900  72.724600  32.896400   0.003607  -0.002222  11.448200   0.001264   0.005666  11.491500   3.577400  17.048900   9.840170   0.001015  -0.002750   6.888130  -0.000699  -0.002507  54.916100   4.361270   3.058090  55.032600  -0.002590  -0.001573  41.274400  -0.000500  -0.003932  57.603200   0.673881   0.428077  57.605700  -0.000064  -0.000810  43.204300   0.001261  -0.002168  56.478200  -7.235200  -4.770990  85.170400  -0.001802  -0.000553  56.723500  -0.002419   0.004549   3.805530  15.443100   0.998238   0.291305   1.850690  12.387900  -3.798020  -4.837700   2.285130  -0.000000   0.000000   0.000000  -0.878144  14.633600  -6.547350   0.749305   1.133000 -11.513100   0.207220  -2.123690   6.450370  -0.000000   0.000000   0.000000
 -1.212630  89.514000   0.416537  -2.419320 -12.124700  -5.553460   0.407219   7.814450  -2.653070   1.200060  15.600900  -5.439600  -0.524054  12.379300   0.112471  -0.979569  25.095100  -5.489440  -0.000884  10.984600  12.015100 -60.821300 -13.899400   4.851530  29.844700 -12.718100 -76.788400 -20.415900  28.209700   4.226350  31.284400  27.946200 -56.986700 -42.628200  -0.004074  -0.003693 -18.786700  -0.001735  -0.003274 -26.897400  -2.093240   4.120800 -22.068500  -0.000890   0.000760 -15.448000  -0.001208   0.005796 -64.081900  -4.157630   2.018960 -64.155100   0.002184  -0.001749 -48.116300   0.001856   0.002954 -59.865100  -6.060190   3.504630 -60.050800  -0.000279   0.001438 -45.038100   0.002827   0.006462 -59.139400  -8.805360   5.226470 -89.313000  -0.002387   0.000595 -59.482500  -0.002216   0.005836  -2.974940   8.413630   4.477810  36.800400  -6.931210  -2.620770 -21.568500  -2.654380  70.314300  47.737500  26.640100 -27.642900 -34.404300  29.335600  72.889800  32.764000   0.003548  -0.002178  11.382000   0.001190   0.005665  11.415100   3.533960  16.974300   9.771220   0.001009  -0.002730   6.839870  -0.000670  -0.002486  54.938000   4.357760   3.053050  55.054200  -0.002602  -0.001554  41.290600  -0.000465  -0.003921  57.622900   0.668540   0.424272  57.625300   0.000000  -0.000715  43.219000   0.001296  -0.002197  56.474500  -7.233300  -4.768410  85.164200  -0.001745  -0.000490  56.719300  -0.002394   0.004510   3.759700  15.427500   0.940848   0.256823   1.814030  12.459500  -3.756340  -4.779150   2.296140  -0.000000   0.000000  -0.000000  -0.928370  14.608200  -6.463980   0.742419   1.093010 -11.564400   0.225114  -2.038060   6.455950  -0.000000   0.000000   0.000000
